<svg xmlns="http://www.w3.org/2000/svg" enable-background="new 0 0 60 60" viewBox="0 0 60 60" id="netflix">
  <path id="Captions" fill="#fff" d="M50,60H10C4.477,60,0,55.523,0,50V10C0,4.477,4.477,0,10,0h40c5.523,0,10,4.477,10,10v40
		C60,55.523,55.523,60,50,60z"></path>
  <g id="Icons">
    <path fill="#ff6684" d="M12.545 55c-.229 0-.454-.079-.634-.227C11.68 54.583 11.545 54.3 11.545 54V24.034c0-.553.448-1 1-1s1 .447 1 1V52.78l8.909-1.781v-22.09c0-.553.448-1 1-1s1 .447 1 1v22.909c0 .477-.336.887-.804.98L12.742 54.98C12.676 54.993 12.611 55 12.545 55zM12.545 21.034c-.552 0-1-.447-1-1V6c0-.553.448-1 1-1s1 .447 1 1v14.034C13.545 20.587 13.098 21.034 12.545 21.034zM47.454 55c-.553 0-1-.447-1-1V7h-8.908v23c0 .553-.447 1-1 1s-1-.447-1-1V6c0-.553.447-1 1-1h10.908c.553 0 1 .447 1 1v48C48.454 54.553 48.007 55 47.454 55z"></path>
    <path fill="#ff6684" d="M47.454,55c-0.055,0-0.109-0.005-0.164-0.014l-13.091-2.182c-0.322-0.054-0.599-0.262-0.739-0.557
			L11.643,6.43c-0.147-0.31-0.126-0.674,0.057-0.964C11.883,5.176,12.202,5,12.545,5h13.091c0.392,0,0.748,0.229,0.91,0.586
			l21.818,48c0.153,0.337,0.108,0.729-0.117,1.023C48.057,54.857,47.762,55,47.454,55z M35.042,50.918l10.725,1.787L24.992,7H14.129
			L35.042,50.918z"></path>
    <polygon fill="#ffbdcc" points="36.399 49.116 17.297 9 23.705 9 42.393 50.115"></polygon>
  </g>
</svg>
